<svg width="24" height="24" viewBox="0 0 24 24" fill="none" xmlns="http://www.w3.org/2000/svg">
<g id="local_shipping">
<mask id="mask0_1269_17322" style="mask-type:alpha" maskUnits="userSpaceOnUse" x="0" y="0" width="24" height="24">
<rect id="Bounding box" width="24" height="24" fill="#D9D9D9"/>
</mask>
<g mask="url(#mask0_1269_17322)">
<path id="local_shipping_2" d="M5.84961 19.55C5.06628 19.55 4.40361 19.2793 3.86161 18.738C3.32028 18.196 3.04961 17.5333 3.04961 16.75H1.34961V6.3C1.34961 5.8 1.52461 5.375 1.87461 5.025C2.22461 4.675 2.64961 4.5 3.14961 4.5H16.7746V8.3H19.4246L22.6496 12.625V16.75H20.8496C20.8496 17.5333 20.5746 18.196 20.0246 18.738C19.4746 19.2793 18.8079 19.55 18.0246 19.55C17.2579 19.55 16.5996 19.2793 16.0496 18.738C15.4996 18.196 15.2246 17.5333 15.2246 16.75H8.64961C8.64961 17.5333 8.37894 18.196 7.83761 18.738C7.29561 19.2793 6.63294 19.55 5.84961 19.55ZM5.84961 18.05C6.21628 18.05 6.52461 17.925 6.77461 17.675C7.02461 17.425 7.14961 17.1167 7.14961 16.75C7.14961 16.3833 7.02461 16.075 6.77461 15.825C6.52461 15.575 6.21628 15.45 5.84961 15.45C5.48294 15.45 5.17461 15.575 4.92461 15.825C4.67461 16.075 4.54961 16.3833 4.54961 16.75C4.54961 17.1167 4.67461 17.425 4.92461 17.675C5.17461 17.925 5.48294 18.05 5.84961 18.05ZM2.84961 15.25H3.57461C3.79128 14.8833 4.09961 14.575 4.49961 14.325C4.89961 14.075 5.34961 13.95 5.84961 13.95C6.33294 13.95 6.77894 14.0707 7.18761 14.312C7.59561 14.554 7.90794 14.8667 8.12461 15.25H15.2746V6H3.14961C3.08294 6 3.01628 6.03333 2.94961 6.1C2.88294 6.16667 2.84961 6.23333 2.84961 6.3V15.25ZM18.0496 18.05C18.4163 18.05 18.7246 17.925 18.9746 17.675C19.2246 17.425 19.3496 17.1167 19.3496 16.75C19.3496 16.3833 19.2246 16.075 18.9746 15.825C18.7246 15.575 18.4163 15.45 18.0496 15.45C17.6829 15.45 17.3706 15.575 17.1126 15.825C16.8539 16.075 16.7246 16.3833 16.7246 16.75C16.7246 17.1167 16.8539 17.425 17.1126 17.675C17.3706 17.925 17.6829 18.05 18.0496 18.05ZM16.7746 13.25H21.2496L18.6496 9.8H16.7746V13.25Z" fill="#2E31BE"/>
</g>
</g>
</svg>
